<svg width="24" height="24" viewBox="0 0 24 24" fill="none" xmlns="http://www.w3.org/2000/svg">
<g clip-path="url(#clip0_1012_4361)">
<path d="M7.99902 18.5942V23.5008C7.99902 23.7769 8.22314 24.0002 8.49929 24.0002C8.7754 24.0002 8.99951 23.7768 8.99951 23.5008V18.5942H7.99902Z" fill="#0568FF"/>
<path d="M17.3845 4.32372L16.6777 3.61617L20.1025 0.191406L20.8093 0.898166L17.3845 4.32372Z" fill="#0568FF"/>
<path d="M8.49976 8.00049C5.46238 8.00049 3 10.4629 3 13.5002C3 16.5383 5.46238 19.0007 8.49976 19.0007C11.5371 19.0007 13.9995 16.5383 13.9995 13.5002C13.9995 10.4629 11.5371 8.00049 8.49976 8.00049ZM11.6821 16.6826C10.8318 17.5322 9.70163 18.0003 8.49976 18.0003C7.29784 18.0003 6.16769 17.5322 5.3181 16.6826C4.46775 15.8323 3.99974 14.7029 3.99974 13.5002C3.99974 12.2983 4.46775 11.1682 5.3181 10.3186C6.16774 9.46899 7.29784 9.00023 8.49976 9.00023C9.70167 9.00023 10.8318 9.46899 11.6821 10.3186C12.5318 11.1682 12.9997 12.2983 12.9997 13.5002C12.9997 14.7029 12.5318 15.8323 11.6821 16.6826Z" fill="#0568FF"/>
<path d="M9.99901 22.5002H7.00049C6.72434 22.5002 6.50098 22.2768 6.50098 22.0007C6.50098 21.7246 6.72439 21.5005 7.00049 21.5005H9.99901C10.2752 21.5005 10.4993 21.7246 10.4993 22.0007C10.4993 22.2769 10.2752 22.5002 9.99901 22.5002Z" fill="#0568FF"/>
<path d="M21 0.500221C21 0.224117 20.7758 0.000750026 20.4997 0.000750026V0H18.5156V0.00145318C18.5105 0.00070315 18.5053 0 18.4995 0C18.2233 0.000750026 18 0.224117 18 0.500221C18 0.776371 18.2234 1.00049 18.4995 1.00049C18.5053 1.00049 18.5104 0.999738 18.5156 0.999738V1.00049H19.9995V2.48437H20.0003C20.0003 2.49023 19.9995 2.49534 19.9995 2.50049C19.9995 2.77664 20.2236 3.00001 20.4997 3.00001C20.7758 3.00001 21 2.7766 21 2.50049C21 2.49538 20.9992 2.49023 20.9992 2.48437H21V0.500221Z" fill="#0568FF"/>
<path d="M17.3183 3.68263C16.2437 2.60817 14.8367 2.07129 13.429 2.07129C12.0213 2.07129 10.6136 2.60817 9.53987 3.68263C7.39166 5.83009 7.39166 9.31275 9.53987 11.4602C10.4986 12.4197 11.7239 12.95 12.9779 13.0525C12.9434 12.698 12.8665 12.3523 12.7523 12.0213C11.8068 11.8792 10.9352 11.4419 10.2467 10.7535C9.39704 9.90381 8.92907 8.77371 8.92907 7.57179C8.92907 6.36917 9.39709 5.23978 10.2467 4.38943C11.097 3.53979 12.2272 3.07178 13.429 3.07178C14.631 3.07178 15.7611 3.53979 16.6107 4.38943C17.461 5.23978 17.9291 6.36913 17.9291 7.57179C17.9291 8.77371 17.461 9.90381 16.6107 10.7535C15.8512 11.5137 14.8668 11.9678 13.8077 12.0557C13.8942 12.3743 13.9535 12.7046 13.9813 13.0437C15.1993 12.9214 16.3844 12.3941 17.3183 11.4602C19.4657 9.31279 19.4657 5.83009 17.3183 3.68263Z" fill="#0568FF"/>
</g>
<defs>
<clipPath id="clip0_1012_4361">
<rect width="24" height="24" fill="white"/>
</clipPath>
</defs>
</svg>
